<?xml version="1.0" encoding="UTF-8"?>
<svg id="Capa_1" data-name="Capa 1" xmlns="http://www.w3.org/2000/svg" viewBox="0 0 539.4 150">
  <defs>
    <style>
      .cls-1 {
        fill: #0096a3;
      }

      .cls-1, .cls-2 {
        fill-rule: evenodd;
      }

      .cls-2 {
        fill: #ec1c24;
      }
    </style>
  </defs>
  <path class="cls-1" d="M9.6,1.26h30.25c4.75,0,8.14,3.92,8.64,8.64l10.17,95.7L112.26,7.28c1.58-2.9,2.67-6.03,5.94-6.03h20.32c10.34,0,16.2,9.39,9.66,21.4l-64.55,118.39c-1.58,2.9-2.67,6.03-5.94,6.03h-21.44c-.24.02-.47.03-.71.03h-30.25c-4.75,0-7.86-3.95-8.64-8.64L.96,9.9C.17,5.21,4.85,1.26,9.6,1.26Z"/>
  <path class="cls-2" d="M187.59,1.26h30.25c4.75,0,7.83,3.96,8.64,8.64l22.39,128.56c.82,4.68-3.9,8.65-8.64,8.64l-32.04-.03c-4.75,0-7.86-3.95-8.64-8.64l-13.96-94.63-24.7,45.36c-1.58,2.89-2.68,6.03-5.94,6.03h-31.92c-3.26,0-7.52-3.13-5.94-6.03L161.54,7.29c1.58-2.9,2.67-6.03,5.94-6.03h20.1Z"/>
  <path class="cls-2" d="M467.15,131.4c0,1.81-.62,3.32-1.86,4.52-1.24,1.2-3.13,1.8-5.68,1.8h-4.19v9.1h-2.85v-21.81h7.04c2.46,0,4.33.59,5.62,1.78,1.28,1.19,1.92,2.72,1.92,4.6h0ZM459.61,135.37c1.59,0,2.75-.34,3.5-1.03.75-.69,1.13-1.67,1.13-2.94,0-2.69-1.54-4.04-4.63-4.04h-4.19v8.01h4.19ZM486.33,137.59c0,.54-.03,1.12-.09,1.72h-13.7c.1,1.69.68,3.01,1.74,3.96,1.05.95,2.33,1.42,3.83,1.42,1.23,0,2.26-.29,3.08-.86.82-.57,1.4-1.34,1.74-2.3h3.07c-.46,1.65-1.38,2.99-2.75,4.02-1.38,1.03-3.09,1.55-5.13,1.55-1.63,0-3.08-.36-4.36-1.09-1.28-.73-2.29-1.77-3.02-3.11-.73-1.35-1.09-2.9-1.09-4.68s.35-3.33,1.06-4.66c.71-1.33,1.71-2.36,2.99-3.08,1.28-.72,2.76-1.08,4.43-1.08s3.07.35,4.32,1.06c1.25.71,2.22,1.68,2.89,2.93.68,1.24,1.02,2.64,1.02,4.21h0ZM483.39,137c0-1.08-.24-2.02-.72-2.8-.48-.78-1.13-1.38-1.96-1.78-.82-.41-1.74-.61-2.74-.61-1.44,0-2.66.46-3.68,1.38-1.01.92-1.59,2.19-1.74,3.82h10.82ZM492.93,132.46c.5-.98,1.21-1.74,2.14-2.28.93-.54,2.06-.81,3.39-.81v2.94h-.75c-3.19,0-4.79,1.73-4.79,5.19v9.32h-2.85v-17.14h2.85v2.78h0ZM516.96,129.68v17.14h-2.85v-2.53c-.54.88-1.3,1.56-2.27,2.05-.97.49-2.04.74-3.21.74-1.33,0-2.53-.28-3.6-.83-1.06-.55-1.9-1.38-2.52-2.49-.62-1.11-.92-2.45-.92-4.04v-10.04h2.82v9.67c0,1.69.43,2.99,1.28,3.9.86.91,2.02,1.36,3.5,1.36s2.72-.47,3.6-1.41c.88-.94,1.31-2.3,1.31-4.1v-9.42h2.85ZM512.42,124.83l-6.66,3.57v-2.13l6.66-3.91v2.47Z"/>
  <g>
    <path class="cls-2" d="M286.96,115.17h7.43l16.39-43.41h-7.17l-12.88,35.58-12.88-35.58h-7.37l16.46,43.41h0ZM316.83,115.17h6.77v-43.41h-6.77v43.41h0ZM331.56,115.17h6.57v-13.74h24.43v13.74h6.77v-25.55c0-11.48-6.7-18.72-18.98-18.72s-18.78,7.23-18.78,18.72v25.55h0ZM338.14,95.19v-5.58c0-7.83,4.12-12.48,12.21-12.48s12.21,4.65,12.21,12.48v5.58h-24.43Z"/>
    <path class="cls-1" d="M376.24,115.17h6.77v-28.34c0-6.64,3.72-9.69,8.63-9.69s8.63,3.19,8.63,9.69v28.34h6.77v-28.34c0-6.5,3.65-9.69,8.63-9.69s8.63,3.05,8.63,9.69v28.34h6.77v-28.34c0-10.75-6.5-15.93-14.87-15.93-5.71,0-10.16,2.52-12.55,7.23-2.39-4.71-6.84-7.23-12.54-7.23-8.36,0-14.87,5.18-14.87,15.93v28.34h0ZM438.96,115.17h31.93v-6.24h-25.16v-12.74h21.31v-6.24h-21.31v-11.95h25.16v-6.24h-31.93v43.41h0ZM478.39,115.17h15.47c15.13,0,23.1-8.7,23.1-21.7s-7.97-21.71-23.1-21.71h-15.47v43.41h0ZM485.16,108.93v-30.93h8.7c11.08,0,16.26,6.11,16.26,15.47s-5.18,15.47-16.26,15.47h-8.7Z"/>
  </g>
</svg>